<?xml version="1.0" encoding="UTF-8" standalone="no"?><!-- Generator: Gravit.io --><svg xmlns="http://www.w3.org/2000/svg" xmlns:xlink="http://www.w3.org/1999/xlink" style="isolation:isolate" viewBox="0 0 500 500" width="500pt" height="500pt"><path d=" M 222.82 185.24 C 219.42 187.62 216.36 190.34 212.96 193.06 C 157.88 236.92 155.84 292 204.8 316.82 C 238.46 333.82 295.24 327.02 322.1 319.54 C 352.36 311.04 342.16 271.94 313.6 282.82 C 293.2 290.3 244.58 299.14 220.78 287.24 C 194.26 274.32 195.28 248.82 228.94 220.26 C 255.8 197.48 290.82 177.76 325.5 160.08 C 351.68 146.82 334 114.18 310.88 127.1 C 288.78 139.34 269.4 151.58 251.04 164.5 C 241.18 136.28 225.88 106.02 211.26 85.28 C 197.66 65.9 164.34 84.26 182.02 106.02 C 197.66 125.06 213.98 158.38 222.82 185.24 Z " fill="rgb(130,110,193)"/><rect x="240" y="310" width="20" height="50" transform="matrix(1,0,0,1,0,0)" fill="rgb(130,110,193)"/><rect x="140" y="360" width="20" height="70" transform="matrix(1,0,0,1,0,0)" fill="rgb(130,110,193)"/><rect x="340" y="360" width="20" height="70" transform="matrix(1,0,0,1,0,0)" fill="rgb(130,110,193)"/><rect x="140" y="350" width="220" height="20" transform="matrix(1,0,0,1,0,0)" fill="rgb(130,110,193)"/><rect x="70" y="420" width="160" height="20" transform="matrix(1,0,0,1,0,0)" fill="rgb(130,110,193)"/><rect x="270" y="420" width="160" height="20" transform="matrix(1,0,0,1,0,0)" fill="rgb(130,110,193)"/></svg>